<?xml version="1.0" encoding="UTF-8" standalone="no"?>
<!-- Created with Inkscape (http://www.inkscape.org/) -->

<svg
   xmlns:dc="http://purl.org/dc/elements/1.1/"
   xmlns:cc="http://creativecommons.org/ns#"
   xmlns:rdf="http://www.w3.org/1999/02/22-rdf-syntax-ns#"
   xmlns:svg="http://www.w3.org/2000/svg"
   xmlns="http://www.w3.org/2000/svg"
   xmlns:sodipodi="http://sodipodi.sourceforge.net/DTD/sodipodi-0.dtd"
   xmlns:inkscape="http://www.inkscape.org/namespaces/inkscape"
   width="512"
   height="512"
   id="svg2"
   version="1.1"
   inkscape:version="0.48.5 r10040"
   sodipodi:docname="dpp-logo.svg"
   inkscape:export-filename="/home/viliam/Documents/Projects/Icons/dpp1.png"
   inkscape:export-xdpi="90.000092"
   inkscape:export-ydpi="90.000092">
  <defs
     id="defs4" />
  <sodipodi:namedview
     id="base"
     pagecolor="#ffffff"
     bordercolor="#666666"
     borderopacity="1.0"
     inkscape:pageopacity="0.0"
     inkscape:pageshadow="2"
     inkscape:zoom="0.98994949"
     inkscape:cx="160.31611"
     inkscape:cy="238.71806"
     inkscape:document-units="px"
     inkscape:current-layer="layer1"
     showgrid="false"
     inkscape:window-width="1920"
     inkscape:window-height="1054"
     inkscape:window-x="0"
     inkscape:window-y="0"
     inkscape:window-maximized="1" />
  <metadata
     id="metadata7">
    <rdf:RDF>
      <cc:Work
         rdf:about="">
        <dc:format>image/svg+xml</dc:format>
        <dc:type
           rdf:resource="http://purl.org/dc/dcmitype/StillImage" />
        <dc:title></dc:title>
      </cc:Work>
    </rdf:RDF>
  </metadata>
  <g
     inkscape:label="Layer 1"
     inkscape:groupmode="layer"
     id="layer1"
     transform="translate(0,-540.36218)">
    <path
       sodipodi:type="arc"
       style="fill:#ffffff;fill-opacity:1;stroke:#cd392a;stroke-width:13.96013600999999937;stroke-miterlimit:4;stroke-opacity:1;stroke-dasharray:none;stroke-dashoffset:0"
       id="path2985"
       sodipodi:cx="255.71428"
       sodipodi:cy="293.42856"
       sodipodi:rx="164.28572"
       sodipodi:ry="164.28572"
       d="m 420,293.42856 c 0,90.7325 -73.55322,164.28572 -164.28572,164.28572 -90.7325,0 -164.285722,-73.55322 -164.285722,-164.28572 0,-90.7325 73.553222,-164.28572 164.285722,-164.28572 90.7325,0 164.28572,73.55322 164.28572,164.28572 z"
       transform="matrix(1.430525,0,0,1.430525,-109.80567,376.60529)" />
    <text
       xml:space="preserve"
       style="font-size:449.10757446px;font-style:normal;font-variant:normal;font-weight:normal;font-stretch:normal;line-height:125%;letter-spacing:0px;word-spacing:0px;fill:#ffffff;fill-opacity:1;stroke:none;font-family:Open Sans;-inkscape-font-specification:Open Sans"
       x="139.34642"
       y="902.60071"
       id="text3755"
       sodipodi:linespacing="125%"
       transform="scale(0.91600895,1.0916924)"><tspan
         sodipodi:role="line"
         id="tspan3757"
         x="139.34642"
         y="902.60071"
         style="font-style:normal;font-variant:normal;font-weight:bold;font-stretch:normal;fill:#ffffff;font-family:Open Sans;-inkscape-font-specification:Open Sans Bold" /></text>
    <path
       inkscape:connector-curvature="0"
       id="path3075"
       d="m 226.9925,989.64309 c -12.06329,-2.16069 -30.98236,-7.65061 -40.13979,-11.64774 l -3.16904,-1.38329 0.4527,-5.01198 c 0.24898,-2.75658 1.29298,-9.24412 2.32002,-14.41675 9.20234,-46.34782 34.38562,-86.05741 73.18404,-115.3983 17.67404,-13.3658 42.40793,-25.41408 62.04915,-30.22514 16.26928,-3.98512 10.64371,-3.74975 95.91144,-4.01286 L 496,807.3051 l -0.45298,7.64579 c -1.41931,23.95679 -6.21865,52.16945 -9.27251,54.50786 -0.80217,0.61424 -6.75976,0.81076 -24.57795,0.81076 l -23.51912,0 -3.84928,8.04694 c -13.65803,28.5521 -32.73384,51.97923 -58.47965,71.8191 -28.54536,21.99723 -63.85702,35.98189 -100.37832,39.75342 -14.02823,1.44862 -39.74535,1.31823 -48.47769,-0.24588 z m 55.65795,-51.88017 c 38.30623,-6.26087 71.50633,-27.5567 92.02341,-59.02729 2.42974,-3.72691 4.41771,-7.15644 4.41771,-7.62116 0,-1.2633 -30.5188,-1.18888 -37.20676,0.0907 -19.57899,3.74608 -41.56937,15.84337 -58.3737,32.11241 -9.6782,9.36991 -18.76949,21.31388 -23.8304,31.30797 -2.18275,4.3104 -2.26792,4.87523 -0.77841,5.16215 2.17919,0.41966 16.00339,-0.75898 23.74815,-2.02481 z m -117.2759,28.2766 C 130.47894,947.69167 104.30998,922.18839 86.061401,888.74409 72.782035,864.40685 64.617068,834.22357 64.307635,808.32725 l -0.116258,-9.72915 24.97149,0 24.971473,0 0.80506,8.43193 c 3.21107,33.63227 16.43091,63.37695 38.65955,86.98411 7.2031,7.6498 14.50346,13.80863 23.77488,20.05725 4.10246,2.7649 7.54785,5.39491 7.65643,5.84454 0.10856,0.44953 -0.54785,3.09913 -1.45871,5.88793 -3.24274,9.92846 -5.48513,22.35037 -7.21605,39.97352 -0.55041,5.60395 -0.80963,5.61012 -10.98095,0.26214 z m 60.64504,-109.8295 c 0,-0.99009 4.34987,-18.32748 16.00053,-63.77371 2.33205,-9.09676 4.51358,-17.05301 4.84785,-17.68057 0.33426,-0.62755 4.60932,-3.81178 9.50014,-7.07604 4.89082,-3.26429 11.08145,-7.56053 13.75697,-9.54721 6.81997,-5.06411 18.4418,-16.50566 26.09743,-25.69262 3.56728,-4.28082 7.10151,-8.513 7.85385,-9.40484 1.04893,-1.24343 1.41384,-1.39038 1.56495,-0.63022 0.10839,0.54521 -2.4515,13.24175 -5.68865,28.21453 -3.23715,14.97278 -7.34463,34.08228 -9.12775,42.46557 -1.78312,8.38329 -3.53235,16.15488 -3.88718,17.27022 -0.55765,1.7529 -1.83445,2.65371 -9.41658,6.64363 -16.98419,8.93752 -27.7056,16.97987 -42.2011,31.65591 -4.69498,4.75345 -8.70826,8.64264 -8.91839,8.64264 -0.21014,0 -0.38207,-0.48928 -0.38207,-1.08729 z m 173.61019,-57.76649 c -0.16677,-0.27172 -0.64248,-4.87216 -1.05713,-10.22319 -2.08179,-26.86577 -9.35934,-49.53715 -22.69775,-70.70906 -10.36601,-16.45387 -26.15434,-31.99258 -41.66163,-41.00292 -2.78557,-1.61853 -5.06468,-3.33662 -5.06468,-3.81796 0,-0.48134 1.8767,-8.54147 4.17045,-17.91138 2.29375,-9.36993 4.95107,-20.34066 5.90515,-24.3794 1.15677,-4.89678 2.07418,-7.47345 2.75369,-7.73421 1.37042,-0.52588 13.63064,5.76626 22.51997,11.5576 40.28919,26.24816 68.76913,67.2241 80.43656,115.72934 3.36671,13.99648 5.00428,26.28776 5.09842,38.26799 l 0.0816,10.37776 -25.09068,0.16973 c -13.79988,0.0933 -25.22714,-0.0526 -25.39392,-0.3243 z M 16.184451,786.58299 c -0.225854,-0.36545 -0.247308,-1.45997 -0.04771,-2.43229 0.199631,-0.97232 0.95618,-7.00534 1.681215,-13.40671 2.296437,-20.27539 5.512408,-38.88507 7.710896,-44.62025 l 0.680758,-1.77586 24.463209,-0.16997 24.46321,-0.16997 6.526952,-12.99141 c 11.686041,-23.26022 23.879389,-39.54336 42.849109,-57.2212 36.89639,-34.38368 87.98799,-53.66109 137.43206,-51.85461 25.20854,0.92102 50.59233,5.70944 62.70489,11.8287 4.65877,2.35362 4.64725,2.31751 3.53331,11.07616 -4.57553,35.97608 -17.07786,66.49752 -38.62671,94.29778 -6.22563,8.03172 -21.89436,23.74941 -30.22945,30.32389 -26.86238,21.18832 -57.81774,34.32154 -87.46557,37.10843 -9.74503,0.91603 -155.110361,0.92286 -155.676202,0.007 z M 170.56343,723.36906 c 28.81021,-4.72792 57.74714,-23.79483 74.80496,-49.28993 3.38694,-5.06222 10.48727,-18.81888 10.48727,-20.31876 0,-1.48936 -14.40576,-0.63122 -25.2958,1.50687 -29.226,5.73807 -56.82859,21.005 -78.16357,43.23212 -9.80358,10.21351 -20.28029,23.84448 -19.40959,25.2533 0.61858,1.00088 31.03208,0.69042 37.57673,-0.3836 z"
       style="fill:#cd382a" />
  </g>
</svg>
