<?xml version="1.0" encoding="UTF-8" standalone="no"?>
<!-- Created with Inkscape (http://www.inkscape.org/) -->

<svg
   xmlns:dc="http://purl.org/dc/elements/1.1/"
   xmlns:cc="http://creativecommons.org/ns#"
   xmlns:rdf="http://www.w3.org/1999/02/22-rdf-syntax-ns#"
   xmlns:svg="http://www.w3.org/2000/svg"
   xmlns="http://www.w3.org/2000/svg"
   xmlns:sodipodi="http://sodipodi.sourceforge.net/DTD/sodipodi-0.dtd"
   xmlns:inkscape="http://www.inkscape.org/namespaces/inkscape"
   width="512"
   height="512"
   id="svg2"
   version="1.1"
   inkscape:version="0.91 r13725"
   sodipodi:docname="facebook-logo.svg"
   inkscape:export-filename="/home/viliam/Documents/Projects/Icons/facebook2.png"
   inkscape:export-xdpi="90.000092"
   inkscape:export-ydpi="90.000092">
  <defs
     id="defs4" />
  <sodipodi:namedview
     id="base"
     pagecolor="#ffffff"
     bordercolor="#666666"
     borderopacity="1.0"
     inkscape:pageopacity="0.0"
     inkscape:pageshadow="2"
     inkscape:zoom="1.4"
     inkscape:cx="35.745987"
     inkscape:cy="272.91955"
     inkscape:document-units="px"
     inkscape:current-layer="layer1"
     showgrid="false"
     inkscape:window-width="1920"
     inkscape:window-height="1034"
     inkscape:window-x="0"
     inkscape:window-y="46"
     inkscape:window-maximized="0" />
  <metadata
     id="metadata7">
    <rdf:RDF>
      <cc:Work
         rdf:about="">
        <dc:format>image/svg+xml</dc:format>
        <dc:type
           rdf:resource="http://purl.org/dc/dcmitype/StillImage" />
        <dc:title />
      </cc:Work>
    </rdf:RDF>
  </metadata>
  <g
     inkscape:label="Layer 1"
     inkscape:groupmode="layer"
     id="layer1"
     transform="translate(0,-540.36218)">
    <path
       sodipodi:type="arc"
       style="fill:#3b57a0;fill-opacity:1;stroke:none"
       id="path5090"
       sodipodi:cx="-203.04066"
       sodipodi:cy="358.45682"
       sodipodi:rx="155.56349"
       sodipodi:ry="142.4315"
       d="m -47.477173,358.45682 a 155.56349,142.4315 0 0 1 -155.563487,142.4315 155.56349,142.4315 0 0 1 -155.5635,-142.4315 155.56349,142.4315 0 0 1 155.5635,-142.43151 155.56349,142.4315 0 0 1 155.563487,142.43151 z"
       transform="matrix(1.5749196,0,0,1.7201251,575.77272,179.77161)" />
    <path
       inkscape:connector-curvature="0"
       style="font-style:normal;font-variant:normal;font-weight:normal;font-stretch:normal;font-size:651.39508057px;line-height:125%;font-family:'Open Sans';-inkscape-font-specification:'Open Sans';letter-spacing:0px;word-spacing:0px;fill:#ffffff;fill-opacity:1;stroke:#ffffff;stroke-width:1.2;stroke-linecap:butt;stroke-linejoin:miter;stroke-miterlimit:4;stroke-dasharray:none;stroke-opacity:1"
       d="m 349.08596,627.60045 c -39.86402,0 -70.92888,10.70869 -93.19336,32.12499 -22.05244,21.20427 -33.07813,51.10159 -33.07813,89.69336 l 0,29.26172 -51.20898,0 0,67.42969 51.20898,0 0,192.45899 a 244.99999,245 0 0 0 33.18555,2.543 244.99999,245 0 0 0 59.05273,-7.4727 l 0,-187.52929 68.38282,0 0,-67.42969 -68.38282,0 0,-27.67188 c 0,-32.44252 17.2808,-48.6621 51.84375,-48.6621 11.02622,0 20.3567,0.95294 27.99024,2.86132 l 0.95312,-71.24609 c -18.44771,-4.24085 -34.03134,-6.36132 -46.7539,-6.36132 z"
       id="text4135" />
  </g>
</svg>
