<?xml version="1.0" encoding="UTF-8" standalone="no"?>
<!-- Created with Inkscape (http://www.inkscape.org/) -->

<svg
   xmlns:dc="http://purl.org/dc/elements/1.1/"
   xmlns:cc="http://creativecommons.org/ns#"
   xmlns:rdf="http://www.w3.org/1999/02/22-rdf-syntax-ns#"
   xmlns:svg="http://www.w3.org/2000/svg"
   xmlns="http://www.w3.org/2000/svg"
   xmlns:sodipodi="http://sodipodi.sourceforge.net/DTD/sodipodi-0.dtd"
   xmlns:inkscape="http://www.inkscape.org/namespaces/inkscape"
   width="512"
   height="512"
   id="svg2"
   version="1.1"
   inkscape:version="0.91 r13725"
   sodipodi:docname="gmail-logo3.svg"
   inkscape:export-filename="/home/viliam/Documents/Projects/Icons/gmail3.png"
   inkscape:export-xdpi="90"
   inkscape:export-ydpi="90">
  <defs
     id="defs4">
    <marker
       inkscape:stockid="Arrow1Lstart"
       orient="auto"
       refY="0.0"
       refX="0.0"
       id="Arrow1Lstart"
       style="overflow:visible"
       inkscape:isstock="true">
      <path
         id="path4198"
         d="M 0.0,0.0 L 5.0,-5.0 L -12.5,0.0 L 5.0,5.0 L 0.0,0.0 z "
         style="fill-rule:evenodd;stroke:#9b9b9b;stroke-width:1pt;stroke-opacity:1;fill:#9b9b9b;fill-opacity:1"
         transform="scale(0.8) translate(12.5,0)" />
    </marker>
    <filter
       inkscape:collect="always"
       style="color-interpolation-filters:sRGB"
       id="filter4498"
       x="-0.013675379"
       width="1.0273508"
       y="-0.010690322"
       height="1.0213806">
      <feGaussianBlur
         inkscape:collect="always"
         stdDeviation="0.96694754"
         id="feGaussianBlur4500" />
    </filter>
  </defs>
  <sodipodi:namedview
     id="base"
     pagecolor="#ffffff"
     bordercolor="#666666"
     borderopacity="1.0"
     inkscape:pageopacity="0.0"
     inkscape:pageshadow="2"
     inkscape:zoom="1"
     inkscape:cx="-155.36565"
     inkscape:cy="162.68936"
     inkscape:document-units="px"
     inkscape:current-layer="layer1"
     showgrid="false"
     inkscape:window-width="1920"
     inkscape:window-height="1055"
     inkscape:window-x="0"
     inkscape:window-y="25"
     inkscape:window-maximized="1"
     inkscape:snap-smooth-nodes="false"
     inkscape:object-nodes="true" />
  <metadata
     id="metadata7">
    <rdf:RDF>
      <cc:Work
         rdf:about="">
        <dc:format>image/svg+xml</dc:format>
        <dc:type
           rdf:resource="http://purl.org/dc/dcmitype/StillImage" />
        <dc:title></dc:title>
      </cc:Work>
    </rdf:RDF>
  </metadata>
  <g
     inkscape:label="Layer 1"
     inkscape:groupmode="layer"
     id="layer1"
     transform="translate(0,-540.36218)"
     style="display:inline">
    <path
       inkscape:connector-curvature="0"
       id="path5417"
       d="m 1197.6095,784.67175 0,-256 256,0 256,0 0,256 0,255.99995 -256,0 -256,0 0,-255.99995 z"
       style="fill:#fefefe" />
    <g
       id="g4506"
       transform="translate(619.5,30.999999)">
      <circle
         style="opacity:1;fill:#f0eee6;fill-opacity:1;fill-rule:nonzero;stroke:none;stroke-width:1;stroke-linecap:round;stroke-linejoin:miter;stroke-miterlimit:4;stroke-dasharray:none;stroke-dashoffset:0;stroke-opacity:1"
         id="circle4188"
         cx="-363.5"
         cy="765.36218"
         r="245" />
      <path
         sodipodi:nodetypes="ccccc"
         inkscape:connector-curvature="0"
         id="path4184"
         d="M -192,687.4519 -280.22487,736.64661 -363.5,797.15502 -192,906.95984 Z"
         style="fill:#9b9b9b;fill-opacity:1;fill-rule:evenodd;stroke:none;stroke-width:1px;stroke-linecap:butt;stroke-linejoin:miter;stroke-opacity:1" />
      <path
         transform="translate(0,540.36218)"
         inkscape:connector-curvature="0"
         id="path4192"
         d="m -278.02342,311.2431 c -46.33762,-29.65429 -84.25398,-54.11634 -84.2586,-54.3601 -0.005,-0.24376 3.09405,-2.28321 6.88591,-4.53209 18.29038,-10.84771 40.21596,-24.94599 79.72628,-51.26449 23.72344,-15.80258 47.90649,-31.75467 53.74012,-35.44908 11.61696,-7.35697 28.47016,-17.55912 29.00637,-17.55912 0.18621,0 0.33856,48.8434 0.33856,108.54088 0,59.69749 -0.2674,108.54089 -0.59422,108.54089 -0.32682,0 -38.50681,-24.2626 -84.84442,-53.91689 z"
         style="opacity:1;fill:#a5a5a5;fill-opacity:1;fill-rule:nonzero;stroke:none;stroke-width:1;stroke-linecap:round;stroke-linejoin:miter;stroke-miterlimit:4;stroke-dasharray:none;stroke-dashoffset:0;stroke-opacity:1" />
      <path
         sodipodi:nodetypes="scsssssss"
         inkscape:connector-curvature="0"
         id="path4486"
         d="m -449.37744,854.19107 c 46.33762,-29.65429 90.83111,-55.677 90.83573,-55.92076 0.005,-0.24376 -3.27083,-2.45999 -7.06269,-4.70887 -18.29038,-10.84771 -42.11631,-23.70855 -81.62663,-50.02705 -23.72344,-15.80258 -52.40649,-31.25467 -58.24012,-34.94908 -11.61696,-7.35697 -28.47016,-17.55912 -29.00637,-17.55912 -0.18621,0 -0.33856,48.8434 -0.33856,108.54088 0,59.69749 0.84203,106.83806 0.0639,107.68994 -0.77814,0.85188 39.03714,-23.41165 85.37474,-53.06594 z"
         style="opacity:1;fill:#a5a5a5;fill-opacity:1;fill-rule:nonzero;stroke:none;stroke-width:1;stroke-linecap:round;stroke-linejoin:miter;stroke-miterlimit:4;stroke-dasharray:none;stroke-dashoffset:0;stroke-opacity:1;filter:url(#filter4498)" />
      <path
         sodipodi:nodetypes="scsssssss"
         style="opacity:1;fill:#f5f3eb;fill-opacity:1;fill-rule:nonzero;stroke:none;stroke-width:1;stroke-linecap:round;stroke-linejoin:miter;stroke-miterlimit:4;stroke-dasharray:none;stroke-dashoffset:0;stroke-opacity:1"
         d="m -449.37744,850.19107 c 46.33762,-29.65429 85.87282,-52.79229 85.87744,-53.03605 0.005,-0.24376 -3.09405,-2.28321 -6.88591,-4.53209 -18.29038,-10.84771 -41.8348,-26.27004 -81.34512,-52.58854 -23.72344,-15.80258 -47.90649,-31.75467 -53.74012,-35.44908 -11.61696,-7.35697 -28.47016,-17.55912 -29.00637,-17.55912 -0.18621,0 -0.33856,48.8434 -0.33856,108.54088 0,59.69749 -0.70487,111.01576 -0.37805,111.01576 0.32682,0 39.47908,-26.73747 85.81669,-56.39176 z"
         id="path4484"
         inkscape:connector-curvature="0" />
      <path
         id="path4138"
         transform="translate(0,540.36218)"
         d="m -363.5,-20 a 245,245 0 0 0 -245,245 245,245 0 0 0 245,245 245,245 0 0 0 245,-245 245,245 0 0 0 -245,-245 z m 0,22.5 A 222.5,222.5 0 0 1 -192,83.513672 L -363.5,193.2168 -535,83.513672 A 222.5,222.5 0 0 1 -363.5,2.5 Z M -535,146.52734 c 58.74434,33.91673 120.70321,80.93822 171.5,110.26563 63.08151,-36.4203 113.91028,-76.45285 171.5,-109.70313 l 0,219.50782 A 222.5,222.5 0 0 1 -363.5,447.5 222.5,222.5 0 0 1 -535,366.59766 l 0,-220.07032 z"
         style="opacity:1;fill:#df2c1b;fill-opacity:1;fill-rule:nonzero;stroke:none;stroke-width:1;stroke-linecap:round;stroke-linejoin:miter;stroke-miterlimit:4;stroke-dasharray:none;stroke-dashoffset:0;stroke-opacity:1"
         inkscape:connector-curvature="0" />
    </g>
  </g>
  <g
     inkscape:groupmode="layer"
     id="layer2"
     inkscape:label="Layer"
     style="display:inline" />
</svg>
