<?xml version="1.0" encoding="UTF-8" standalone="no"?>
<!-- Created with Inkscape (http://www.inkscape.org/) -->

<svg
   xmlns:dc="http://purl.org/dc/elements/1.1/"
   xmlns:cc="http://creativecommons.org/ns#"
   xmlns:rdf="http://www.w3.org/1999/02/22-rdf-syntax-ns#"
   xmlns:svg="http://www.w3.org/2000/svg"
   xmlns="http://www.w3.org/2000/svg"
   xmlns:sodipodi="http://sodipodi.sourceforge.net/DTD/sodipodi-0.dtd"
   xmlns:inkscape="http://www.inkscape.org/namespaces/inkscape"
   width="512"
   height="512"
   id="svg2"
   version="1.1"
   inkscape:version="0.48.5 r10040"
   sodipodi:docname="pocket-logo.svg"
   inkscape:export-filename="/home/viliam/Documents/Projects/Icons/pocket2.png"
   inkscape:export-xdpi="90.000092"
   inkscape:export-ydpi="90.000092">
  <defs
     id="defs4">
    <inkscape:path-effect
       effect="spiro"
       id="path-effect5831"
       is_visible="true" />
    <inkscape:path-effect
       effect="spiro"
       id="path-effect5827"
       is_visible="true" />
    <inkscape:path-effect
       effect="skeletal"
       id="path-effect5823"
       is_visible="true"
       pattern="M 0,0 0,10 10,5 z"
       copytype="single_stretched"
       prop_scale="1"
       scale_y_rel="false"
       spacing="0"
       normal_offset="0"
       tang_offset="0"
       prop_units="false"
       vertical_pattern="false"
       fuse_tolerance="0" />
    <inkscape:path-effect
       effect="spiro"
       id="path-effect5821"
       is_visible="true" />
    <inkscape:path-effect
       effect="spiro"
       id="path-effect5817"
       is_visible="true" />
  </defs>
  <sodipodi:namedview
     id="base"
     pagecolor="#ffffff"
     bordercolor="#666666"
     borderopacity="1.0"
     inkscape:pageopacity="0.0"
     inkscape:pageshadow="2"
     inkscape:zoom="0.98994949"
     inkscape:cx="337.63311"
     inkscape:cy="376.4565"
     inkscape:document-units="px"
     inkscape:current-layer="layer1"
     showgrid="false"
     inkscape:window-width="1920"
     inkscape:window-height="1054"
     inkscape:window-x="0"
     inkscape:window-y="0"
     inkscape:window-maximized="1" />
  <metadata
     id="metadata7">
    <rdf:RDF>
      <cc:Work
         rdf:about="">
        <dc:format>image/svg+xml</dc:format>
        <dc:type
           rdf:resource="http://purl.org/dc/dcmitype/StillImage" />
        <dc:title></dc:title>
      </cc:Work>
    </rdf:RDF>
  </metadata>
  <g
     inkscape:label="Layer 1"
     inkscape:groupmode="layer"
     id="layer1"
     transform="translate(0,-540.36218)">
    <path
       sodipodi:type="arc"
       style="fill:#ffffff;fill-opacity:1;stroke:#87898b;stroke-width:13.96013600999999937;stroke-miterlimit:4;stroke-opacity:1;stroke-dasharray:none;stroke-dashoffset:0"
       id="path2985"
       sodipodi:cx="255.71428"
       sodipodi:cy="293.42856"
       sodipodi:rx="164.28572"
       sodipodi:ry="164.28572"
       d="m 420,293.42856 c 0,90.7325 -73.55322,164.28572 -164.28572,164.28572 -90.7325,0 -164.285722,-73.55322 -164.285722,-164.28572 0,-90.7325 73.553222,-164.28572 164.285722,-164.28572 90.7325,0 164.28572,73.55322 164.28572,164.28572 z"
       transform="matrix(1.430525,0,0,1.430525,-109.80567,376.60529)" />
    <text
       xml:space="preserve"
       style="font-size:449.10757446px;font-style:normal;font-variant:normal;font-weight:normal;font-stretch:normal;line-height:125%;letter-spacing:0px;word-spacing:0px;fill:#ffffff;fill-opacity:1;stroke:none;font-family:Open Sans;-inkscape-font-specification:Open Sans"
       x="139.34642"
       y="902.60071"
       id="text3755"
       sodipodi:linespacing="125%"
       transform="scale(0.91600895,1.0916924)"><tspan
         sodipodi:role="line"
         id="tspan3757"
         x="139.34642"
         y="902.60071"
         style="font-style:normal;font-variant:normal;font-weight:bold;font-stretch:normal;fill:#ffffff;font-family:Open Sans;-inkscape-font-specification:Open Sans Bold" /></text>
    <path
       style="fill:#ee3e56"
       d="m 256.59375,674.28125 c -127.50143,0 -129.71428,0.0813 -135.90625,3.71875 -3.46182,2.03362 -8.99251,6.04119 -10.5,9.875 -6.16484,15.67826 -3.66968,49.71548 -3.4375,69.21875 0.69226,57.9331 1.07292,63.98688 4.59375,75.375 18.39685,59.50437 66.30696,100.82467 126.46875,109.0625 6.37538,0.87296 18.45954,1.14914 26.875,0.625 55.93825,-3.484 104.20678,-36.08707 128.53125,-86.84375 C 404.9263,830.88294 406,822.36635 406,753.1875 c 0,-59.72687 -0.10325,-61.6885 -3.78125,-66.625 -2.08358,-2.79654 -6.54456,-6.67614 -9.90625,-8.65625 -5.95952,-3.51019 -9.34902,-3.625 -135.71875,-3.625 z m -70.90625,76.75 c 7.70266,-0.2938 16.16261,7.198 42.90625,32.96875 17.01571,16.39668 28.09235,25.8078 29.4375,25 1.18633,-0.71241 14.51819,-13.08733 29.625,-27.5 15.10677,-14.41268 30.07086,-27.29587 33.25,-28.625 19.6605,-0.96667 28.37292,4.99764 27.44511,25.73096 l -39.07011,39.20654 c -21.06592,20.5211 -40.84895,38.55486 -43.96875,40.0625 -6.26787,3.02896 -10.41397,3.26509 -16.09375,0.96875 -5.31096,-2.14722 -77.92885,-71.9079 -81,-77.8125 -5.32548,-10.23873 -1.1333,-22.51349 9.375,-27.5 3.04473,-1.44482 5.5262,-2.40207 8.09375,-2.5 z"
       id="path5813"
       inkscape:connector-curvature="0"
       sodipodi:nodetypes="ssscsssssscssssscccsssss" />
  </g>
</svg>
